<svg width="80" height="33" viewBox="0 0 80 33" fill="none" xmlns="http://www.w3.org/2000/svg">
<path d="M44.4996 24.9961L43.8052 25.7157L44.4996 24.9961ZM4.08101 25.39C4.29856 25.8976 4.88644 26.1328 5.39407 25.9152L13.6664 22.3699C14.174 22.1524 14.4092 21.5645 14.1916 21.0569C13.9741 20.5493 13.3862 20.3141 12.8785 20.5317L5.52538 23.683L2.37404 16.3298C2.15648 15.8222 1.56861 15.5871 1.06098 15.8046C0.553345 16.0222 0.318195 16.61 0.535749 17.1177L4.08101 25.39ZM79 0.49998C78.0177 0.312492 78.0178 0.312393 78.0177 0.312484C78.0177 0.312758 78.0176 0.313031 78.0175 0.313582C78.0173 0.314683 78.017 0.31652 78.0165 0.319086C78.0155 0.324217 78.0139 0.33226 78.0118 0.343158C78.0075 0.364958 78.001 0.398175 77.9921 0.442346C77.9744 0.530691 77.9474 0.662838 77.9109 0.835076C77.838 1.17958 77.7274 1.68429 77.5774 2.31953C77.2773 3.59042 76.8202 5.38153 76.1938 7.45604C74.9377 11.616 73.0144 16.8683 70.3362 21.3485C67.6388 25.8609 64.2901 29.3982 60.2621 30.4541C56.3198 31.4874 51.3597 30.2261 45.1939 24.2765L43.8052 25.7157C50.2324 31.9175 55.8814 33.6699 60.7692 32.3887C65.5712 31.1299 69.2735 27.0243 72.0529 22.3747C74.8515 17.6931 76.831 12.2646 78.1084 8.03416C78.7488 5.91349 79.2162 4.08204 79.5238 2.77917C79.6777 2.12752 79.7918 1.60755 79.8676 1.24909C79.9055 1.06984 79.9339 0.93094 79.9529 0.836106C79.9625 0.788688 79.9697 0.75228 79.9745 0.727353C79.977 0.714889 79.9788 0.705297 79.9801 0.698629C79.9808 0.695293 79.9813 0.692693 79.9816 0.690833C79.9818 0.689899 79.982 0.689059 79.9821 0.688592C79.9822 0.687939 79.9823 0.687468 79 0.49998ZM45.1939 24.2765C37.9946 17.3296 31.8161 13.7722 26.5525 12.4257C21.259 11.0715 16.9535 11.9706 13.5844 13.8053C10.2418 15.6255 7.86849 18.3386 6.34009 20.5625C5.5729 21.6787 5.01018 22.684 4.63782 23.4135C4.45146 23.7785 4.31227 24.0755 4.21857 24.2839C4.1717 24.3882 4.13617 24.4704 4.11177 24.528C4.09957 24.5568 4.09014 24.5795 4.08347 24.5957C4.08013 24.6038 4.07748 24.6103 4.07552 24.6151C4.07454 24.6176 4.07373 24.6196 4.07309 24.6212C4.07277 24.622 4.07242 24.6228 4.07226 24.6232C4.07194 24.624 4.07168 24.6247 5.00015 24.9961C5.92863 25.3675 5.92845 25.3679 5.9283 25.3683C5.92832 25.3682 5.92821 25.3685 5.92823 25.3685C5.92826 25.3684 5.92846 25.3679 5.92882 25.367C5.92955 25.3652 5.93094 25.3618 5.933 25.3568C5.93712 25.3468 5.94391 25.3304 5.95339 25.308C5.97235 25.2633 6.00207 25.1944 6.04273 25.1039C6.12407 24.923 6.24905 24.656 6.41913 24.3228C6.75967 23.6557 7.27898 22.7274 7.98835 21.6953C9.41307 19.6223 11.571 17.179 14.5409 15.5618C17.4841 13.959 21.2723 13.1393 26.0568 14.3633C30.8711 15.5949 36.7548 18.9125 43.8052 25.7157L45.1939 24.2765Z" fill="#98D3FF"/>
</svg>
