<svg width="164" height="130" viewBox="0 0 164 130" fill="none" xmlns="http://www.w3.org/2000/svg">
<path fill-rule="evenodd" clip-rule="evenodd" d="M49.3987 10.7818C47.7165 7.49699 48.664 3.29687 52.1019 2.0386C63.1898 -2.01957 73.2052 0.176863 81.1695 6.88873C87.9439 14.3159 88.3778 30.5934 78.4489 35.5834C77.7935 35.9127 77.1356 36.2896 76.6214 36.8164C66.3079 47.38 87.8386 56.6235 87.6809 60.4882C87.6641 60.8978 87.3187 61.2025 86.9711 61.4137C83.7117 63.3938 77.778 60.3196 74.4059 60.3479C70.6139 60.3795 69.2595 63.1198 65.4337 61.4603C64.8758 61.2184 64.3668 60.8385 64.1282 60.274C63.2033 58.086 63.1504 53.0865 61.9845 49.6046C61.148 47.1067 58.3925 47.7408 58.7691 50.3503C59.2742 53.8508 61.1198 58.3672 60.7948 61.1059C60.6923 61.9688 60.0312 62.6129 59.1789 62.7195C56.3735 63.0705 50.0803 62.3084 45.4096 62.2255C43.2733 62.1875 41.0476 61.2612 41.0343 59.099C41.0132 55.6564 42.6259 50.7502 42.0413 45.286C41.7934 42.9672 42.3039 40.5526 43.8455 38.8185C53.4639 27.9991 54.6698 21.0743 49.3987 10.7818ZM73.4727 19.7521C70.7045 18.6146 70.1204 22.8693 68.3418 25.2985C66.9719 27.1696 64.4809 30.7779 65.1475 31.5381C65.7598 32.2365 66.7989 31.0739 67.4329 30.3958C73.3511 24.0681 77.481 21.399 73.4727 19.7521Z" fill="#1B60F9"/>
<path fill-rule="evenodd" clip-rule="evenodd" d="M1.09254 31.1402C0.954659 30.8822 0.49179 29.5715 0.441105 29.2607C-2.31571 12.3587 7.86998 4.04703 30.3252 4.05556C48.899 6.62426 52.4381 12.3834 47.5388 29.6012C47.4167 30.0293 47.237 30.4682 47.0227 30.8578C38.681 46.0233 35.1421 36.9508 30.9298 44.3143C30.5043 45.0581 29.875 45.7327 29.6329 46.5566C28.7519 49.5538 33.5178 54.8833 34.3426 58.4204C34.758 60.2007 32.6742 60.8461 30.8743 61.0134C23.8548 61.6662 12.5389 66.6208 12.7169 63.5329C12.9186 60.0349 10.8308 49.364 1.09254 31.1402ZM36.9735 22.4662C34.2053 21.3289 33.6209 25.5834 31.8426 28.0128C30.4727 29.8839 27.9814 33.4922 28.648 34.2524C29.2603 34.9508 30.2994 33.788 30.9337 33.1101C36.8519 26.7824 40.9816 24.1133 36.9735 22.4662Z" fill="#1B60F9"/>
<path d="M114.628 57.7366C114.896 59.8399 116.528 61.4715 118.568 61.9552C123.063 63.021 126.798 62.9889 133.062 61.8828C135.458 61.1646 131.083 42.7968 134.1 43.0963C134.181 43.1044 134.263 43.1295 134.341 43.1513C135.235 43.3995 141.114 44.9266 141.458 42.293C141.898 38.9143 141.771 31.4905 140.058 31.318C138.213 31.1322 135.2 29.582 134.361 27.8785C133.943 27.0267 134.546 26.0798 135.365 25.6128C141.296 22.2302 154.654 28.4087 157.2 19.989C158.813 14.6544 156.771 9.01308 154.052 6.06374C151.096 2.85825 124.541 -1.40932 118.667 4.02444C117.549 5.05807 118.028 6.7829 118.8 8.10057C133.659 33.4519 112.497 41.0412 114.628 57.7366Z" fill="#1B60F9"/>
<path d="M40.64 87.4184C41.5472 86.8849 42.2469 86.0528 42.6833 85.0874C45.7722 78.2563 45.0433 74.3476 42.7322 68.7152C42.2596 67.5636 41.4548 66.5569 40.3294 66.0489C24.3382 58.8289 6.87942 69.3487 1.37494 85.8203C-0.789734 92.2978 -0.486407 104.148 4.81437 114.161C10.1152 124.174 26.9077 123.724 46.1861 124.9C49.3654 124.02 47.0674 117.769 44.7867 114.279C41.726 109.595 31.3572 111.199 31.493 109.204C32.2874 97.5373 25.7208 85.4146 30.3252 87.4902C34.7433 89.2378 37.2698 89.4007 40.64 87.4184Z" fill="#1B60F9"/>
<path fill-rule="evenodd" clip-rule="evenodd" d="M77.0179 41.5658C77.2154 40.115 78.0753 38.8645 79.177 37.9153C87.5212 30.7275 88.2915 24.5429 86.7632 13.6474C86.6194 12.6212 86.685 11.5568 87.1202 10.6184C91.4105 1.36369 104.319 -1.36424 113.196 5.64798C113.537 5.91751 113.841 6.24057 114.111 6.58328C119.375 13.2752 120.509 13.4377 122.1 19.1629C124.893 29.2138 120.534 35.9884 115.337 45.0073C111.206 52.1738 108.727 57.8016 101.319 60.7942C100.873 60.9744 100.39 61.0876 99.9131 61.1388C87.8197 62.439 91.466 57.2999 82.4273 52.7918C81.6135 52.3859 80.8458 51.8573 80.2639 51.153C77.2432 47.496 76.5532 44.9774 77.0179 41.5658ZM104.93 36.7808C105.026 36.2905 105.181 35.8013 105.385 35.3458C110.682 23.5038 111.366 20.1912 107.407 19.1629C103.555 18.4263 102.437 22.4571 101.48 32.7384C101.387 33.7398 101.066 34.7146 100.538 35.5672C95.4769 43.7457 92.4827 48.7251 97.1511 49.525C97.6052 49.6028 98.0645 49.6979 98.5204 49.7656C101.435 50.1977 102.938 46.9426 104.93 36.7808Z" fill="#1B60F9"/>
<path fill-rule="evenodd" clip-rule="evenodd" d="M49.1009 66.9563C51.6969 64.0987 62.2781 62.3538 70.2076 64.7143C80.0353 67.6395 73.3561 79.1115 81.9854 88.4342C85.1397 91.8424 82.5407 101.717 74.9229 110.948C74.5837 111.359 74.283 111.811 74.0558 112.295C69.0888 122.863 70.5347 128.864 51.6114 123.723C50.0074 123.288 48.6693 122.156 48.4227 120.494C47.8508 116.639 47.6619 110.863 38.7822 108.366C37.5464 108.019 36.3418 107.435 35.5747 106.394C33.9625 104.208 33.1178 101.642 32.5261 97.048C32.2775 95.117 32.9574 93.1079 34.6226 92.1318C38.367 89.9367 42.1046 90.2302 44.7867 86.5462C48.0514 82.0618 45.3489 71.0866 49.1009 66.9563ZM65.8652 102.63C65.9614 102.139 66.1162 101.65 66.3198 101.195C71.6173 89.3527 72.301 86.0404 68.3418 85.0119C64.465 84.2705 63.3572 88.3594 62.3965 98.7919C62.3162 99.6627 62.062 100.516 61.6529 101.286C56.5812 110.838 55.4902 114.496 58.7797 115.458C62.1485 116.494 63.7246 113.549 65.8652 102.63Z" fill="#1B60F9"/>
<path d="M76.1548 128.44C84.0843 127.142 87.3955 132.526 94.8125 128.44C102.276 123.365 90.012 93.3256 98.7774 100.116C106.591 106.17 93.6931 123.17 99.3604 126.434C104.844 129.591 107.358 130.82 113.959 126.851C114.411 126.579 114.914 126.384 115.359 126.1C119.822 123.262 113.114 109.762 116.255 100.757C116.738 99.3715 118.369 98.4556 118.733 99.8782C120.238 105.765 114.158 130.154 120.933 128.44C128.451 126.538 141.944 133.334 144.12 125.798C144.373 124.921 144.212 123.967 143.93 123.098C133.918 92.2559 145.005 74.8026 134.783 66.3303C134.426 66.0343 134.016 65.7968 133.588 65.621C125.317 62.2218 114.222 62.8037 111.721 66.4843C109.148 70.2715 113.354 77.4593 107.523 77.4593C103.325 77.4593 104.79 67.1862 101.343 65.8943C95.3095 63.2197 90.8569 63.8518 81.9854 66.9563C73.1137 70.0608 80.3304 82.8911 84.784 90.6765C89.2378 98.4619 62.4079 130.69 76.1548 128.44Z" fill="#1B60F9"/>
<path d="M160.581 93.0368C154.052 70.4966 167.578 31.318 159.065 26.4796C153.792 23.4822 146.181 27.7419 144.372 31.4351C142.564 35.1284 145.189 39.3418 144.372 42.293C143.556 45.2441 138.309 47.8387 138.309 53.8571C138.309 70.0266 148.92 69.0806 142.507 95.0429C140.784 102.014 162.579 99.9327 160.581 93.0368Z" fill="#1B60F9"/>
<path d="M144.33 108.997C143.813 107.524 145.09 106.133 146.4 105.305C152.671 101.338 155.626 100.172 157.615 101.133C158.064 101.35 158.408 101.732 158.709 102.132C162.397 107.022 163.571 110.977 163.99 118.273C164.061 119.514 163.775 120.787 162.88 121.638C159.824 124.541 153.597 126.618 150.675 126.766C149.621 126.82 148.552 126.18 148.184 125.179C147.29 122.746 148.168 117.81 147.754 114.161C147.43 111.305 144.99 110.88 144.33 108.997Z" fill="#1B60F9"/>
</svg>
