<?xml version="1.0" standalone="no"?>
<!DOCTYPE svg PUBLIC "-//W3C//DTD SVG 20010904//EN"
 "http://www.w3.org/TR/2001/REC-SVG-20010904/DTD/svg10.dtd">
<svg version="1.0" xmlns="http://www.w3.org/2000/svg"
 width="1024.000000pt" height="1024.000000pt" viewBox="0 0 1024.000000 1024.000000"
 preserveAspectRatio="xMidYMid meet">

<g transform="translate(0.000000,1024.000000) scale(0.100000,-0.100000)"
fill="white" stroke="none">
<path d="M5550 9699 c-238 -31 -443 -210 -505 -444 -21 -79 -21 -225 0 -306
32 -122 123 -261 217 -329 l37 -27 -1167 -1461 -1167 -1461 -75 7 c-145 14
-547 7 -675 -11 -394 -57 -724 -195 -923 -387 -64 -61 -85 -106 -85 -180 0
-104 51 -183 166 -254 149 -91 5522 -3189 5564 -3208 104 -46 251 -12 312 72
50 70 66 163 65 390 0 230 -15 317 -95 553 -79 236 -188 451 -352 696 -68 101
-69 105 -58 140 34 106 1349 3446 1357 3444 5 -1 36 -12 69 -24 84 -31 255
-38 345 -14 164 42 325 171 392 315 48 100 62 167 61 280 -1 191 -90 367 -243
482 -30 22 -521 306 -2665 1543 -126 73 -255 142 -286 153 -47 17 -195 45
-217 41 -4 -1 -36 -5 -72 -10z m499 -1542 c145 -84 264 -155 265 -158 1 -5
-1830 -2707 -1848 -2726 -8 -9 -50 4 -181 56 -135 54 -330 123 -503 177 -10 3
-4 18 21 52 19 26 465 650 992 1387 1043 1459 975 1365 984 1365 3 0 125 -69
270 -153z"/>
<path d="M2945 2033 l-518 -1108 -1 -80 c-1 -68 3 -88 27 -137 87 -178 329
-227 479 -96 31 26 1410 1996 1412 2016 1 13 -847 511 -870 512 -7 0 -245
-498 -529 -1107z"/>
</g>
</svg>
